<svg width="674" height="1063" viewBox="0 0 674 1063" version="1.1" xmlns="http://www.w3.org/2000/svg" xmlns:xlink="http://www.w3.org/1999/xlink" xml:space="preserve" xmlns:serif="http://www.serif.com/" style="fill-rule:evenodd;clip-rule:evenodd;stroke-linejoin:round;stroke-miterlimit:2;">
    <g transform="matrix(1,0,0,1,-2730.51,-1074.44)">
        <g id="side1-prt" transform="matrix(6.12323e-17,1,-1,6.12323e-17,3403.74,1074.44)">
            <rect x="0" y="0" width="1062.99" height="673.228" style="fill:none;"/>
            <clipPath id="_clip1">
                <rect x="0" y="0" width="1062.99" height="673.228"/>
            </clipPath>
            <g clip-path="url(#_clip1)">
                <g><g transform="matrix(0.31551,-7.72777e-17,2.8138e-17,0.114882,-1539.13,-1094.49)">
                        <path d="M7261.27,14518.1L7261.27,14479.5L7233.72,14479.5L7233.72,14155.5L7200.07,14163.1L7200.07,14200.2L7219.49,14196.1L7219.49,14479.5L7192.86,14479.5L7192.86,14518.1L7261.27,14518.1Z" style="fill:white;fill-rule:nonzero;"/>
                        <path d="M7356.86,14249C7357.23,14226.1 7352.42,14181.4 7341.14,14166.2C7334.3,14156 7329.12,14153 7321.73,14153C7311.74,14153.5 7301.58,14158.6 7292.89,14189C7287.71,14209.4 7286.23,14232.2 7286.23,14248.4L7286.23,14425.2C7285.68,14448.5 7290.85,14493.7 7301.76,14509.4C7308.6,14519.6 7313.78,14522.6 7321.17,14522.6C7331.16,14521.6 7341.7,14517.6 7350.02,14486.1C7355.19,14465.3 7356.86,14441.9 7356.86,14425.7L7356.86,14249ZM7342.62,14424.6C7342.62,14450.5 7340.03,14464.2 7333.19,14476.4C7329.86,14482.5 7325.98,14485.1 7321.73,14484.6C7313.41,14486.1 7305.64,14471.4 7302.69,14455.6C7301.21,14448 7300.47,14437.3 7300.47,14424.6L7300.47,14250.5C7300.47,14225.6 7303.24,14210.9 7310.08,14199.2C7313.59,14193.1 7317.48,14190.6 7321.73,14191.1C7330.42,14189.5 7337.63,14203.8 7340.4,14220C7341.88,14227.6 7342.62,14237.8 7342.62,14250.5L7342.62,14424.6Z" style="fill:white;fill-rule:nonzero;"/>
                        <path d="M7451.33,14249C7451.7,14226.1 7446.9,14181.4 7435.62,14166.2C7428.78,14156 7423.6,14153 7416.2,14153C7406.22,14153.5 7396.05,14158.6 7387.36,14189C7382.19,14209.4 7380.71,14232.2 7380.71,14248.4L7380.71,14425.2C7380.15,14448.5 7385.33,14493.7 7396.24,14509.4C7403.08,14519.6 7408.26,14522.6 7415.65,14522.6C7425.63,14521.6 7436.17,14517.6 7444.49,14486.1C7449.67,14465.3 7451.33,14441.9 7451.33,14425.7L7451.33,14249ZM7437.1,14424.6C7437.1,14450.5 7434.51,14464.2 7427.67,14476.4C7424.34,14482.5 7420.46,14485.1 7416.2,14484.6C7407.89,14486.1 7400.12,14471.4 7397.16,14455.6C7395.68,14448 7394.94,14437.3 7394.94,14424.6L7394.94,14250.5C7394.94,14225.6 7397.72,14210.9 7404.56,14199.2C7408.07,14193.1 7411.95,14190.6 7416.2,14191.1C7424.9,14189.5 7432.11,14203.8 7434.88,14220C7436.36,14227.6 7437.1,14237.8 7437.1,14250.5L7437.1,14424.6Z" style="fill:white;fill-rule:nonzero;"/>
                        <path d="M7545.81,14249C7546.18,14226.1 7541.37,14181.4 7530.1,14166.2C7523.25,14156 7518.08,14153 7510.68,14153C7500.7,14153.5 7490.53,14158.6 7481.84,14189C7476.66,14209.4 7475.18,14232.2 7475.18,14248.4L7475.18,14425.2C7474.63,14448.5 7479.81,14493.7 7490.71,14509.4C7497.56,14519.6 7502.73,14522.6 7510.13,14522.6C7520.11,14521.6 7530.65,14517.6 7538.97,14486.1C7544.15,14465.3 7545.81,14441.9 7545.81,14425.7L7545.81,14249ZM7531.57,14424.6C7531.57,14450.5 7528.99,14464.2 7522.15,14476.4C7518.82,14482.5 7514.93,14485.1 7510.68,14484.6C7502.36,14486.1 7494.6,14471.4 7491.64,14455.6C7490.16,14448 7489.42,14437.3 7489.42,14424.6L7489.42,14250.5C7489.42,14225.6 7492.19,14210.9 7499.03,14199.2C7502.55,14193.1 7506.43,14190.6 7510.68,14191.1C7519.37,14189.5 7526.58,14203.8 7529.36,14220C7530.83,14227.6 7531.57,14237.8 7531.57,14250.5L7531.57,14424.6Z" style="fill:white;fill-rule:nonzero;"/>
                        <path d="M7643.61,14417.5C7643.8,14391.1 7638.44,14365.7 7633.82,14351.5C7631.41,14344.4 7628.64,14338.3 7625.31,14332.7C7631.23,14322.6 7634.93,14311.4 7639.18,14289.1C7641.21,14277.9 7642.32,14265.7 7642.32,14252C7642.88,14224.1 7636.22,14179.4 7624.76,14165.7C7617.55,14155.5 7612.18,14152.5 7604.97,14152.5C7594.99,14153.5 7584.64,14157.6 7575.21,14188C7569.85,14208.3 7567.81,14232.2 7567.81,14252C7567.81,14280.4 7573.36,14311.4 7583.53,14332.2C7576.87,14342.9 7572.8,14355.6 7569.11,14380C7567.26,14391.6 7566.33,14404.3 7566.52,14417.5C7565.96,14445.5 7572.62,14493.2 7584.27,14508.9C7591.85,14519.1 7597.39,14522.6 7604.97,14522.6C7615.33,14521.6 7626.42,14517.1 7635.85,14484.6C7641.77,14462.2 7643.61,14437.3 7643.61,14417.5ZM7629.38,14417.5C7629.19,14446 7626.05,14462.2 7617.73,14475.9C7613.48,14482.5 7609.23,14485.1 7604.97,14484.6C7596.1,14486.1 7587.04,14469.8 7583.53,14452.1C7581.86,14443.4 7580.94,14431.8 7580.75,14417.5C7580.75,14375.9 7591.29,14351.5 7604.97,14351.5C7618.47,14351.5 7629.38,14375.4 7629.38,14417.5ZM7628.08,14252C7628.08,14290.1 7618.84,14313.4 7604.97,14313.4C7591.66,14313.4 7581.86,14290.6 7581.86,14252C7582.05,14226.1 7585.01,14211.4 7592.96,14199.2C7596.84,14192.6 7600.91,14190.1 7604.97,14190.6C7613.29,14189 7622.35,14204.3 7625.5,14220.5C7627.16,14228.6 7627.9,14239.3 7628.08,14252Z" style="fill:white;fill-rule:nonzero;"/>
                        <path d="M7735.13,14518.1L7735.13,14243.9L7720.9,14243.9L7720.9,14377.9L7677.45,14377.9L7707.03,14156L7692.98,14156L7663.21,14376.9L7663.21,14416.5L7720.9,14416.5L7720.9,14518.1L7735.13,14518.1Z" style="fill:white;fill-rule:nonzero;"/>
                        <path d="M7827.95,14194.6L7827.95,14156L7761.94,14156L7761.94,14194.6L7812.05,14194.6L7785.61,14307.9L7785.61,14340.4L7793.19,14340.4C7801.88,14338.8 7810.75,14352 7813.89,14367.8C7815.56,14375.4 7816.3,14385 7816.48,14397.7L7816.48,14423.6C7816.48,14449.5 7813.53,14463.7 7805.94,14476.4C7802.06,14482.5 7797.99,14485.1 7793.37,14484.6C7784.5,14486.1 7776.18,14469.3 7773.03,14452.6C7771.37,14443.9 7770.63,14433.3 7770.63,14419.6L7756.4,14419.6C7755.84,14449 7762.13,14494.7 7773.4,14509.4C7780.8,14519.6 7786.16,14522.6 7793.56,14522.6C7803.17,14522.1 7813.89,14517.6 7822.95,14485.6C7828.69,14464.8 7830.72,14440.4 7830.72,14423.6L7830.72,14396.7C7830.72,14363.7 7825.36,14316 7801.69,14305.3L7827.95,14194.6Z" style="fill:white;fill-rule:nonzero;"/>
                        <path d="M7924.09,14518.1L7924.09,14243.9L7909.85,14243.9L7909.85,14377.9L7866.4,14377.9L7895.98,14156L7881.93,14156L7852.17,14376.9L7852.17,14416.5L7909.85,14416.5L7909.85,14518.1L7924.09,14518.1Z" style="fill:white;fill-rule:nonzero;"/>
                    </g></g>
            </g>
        </g>
    </g>
</svg>
